<?xml version="1.0" standalone="no"?>
<!DOCTYPE svg PUBLIC "-//W3C//DTD SVG 20010904//EN"
 "http://www.w3.org/TR/2001/REC-SVG-20010904/DTD/svg10.dtd">
<svg version="1.0" xmlns="http://www.w3.org/2000/svg"
 width="1700.000000pt" height="850.000000pt" viewBox="0 0 1700.000000 850.000000"
 preserveAspectRatio="xMidYMid meet">

<g transform="translate(0.000000,850.000000) scale(0.100000,-0.100000)"
fill="#000000" stroke="none">
<path d="M8395 8285 c-11 -2 -72 -9 -135 -15 -856 -90 -1649 -586 -2165 -1355
-48 -72 -100 -155 -116 -185 -16 -30 -50 -91 -74 -135 -50 -90 -50 -89 -99
-204 -19 -46 -41 -91 -49 -100 -21 -24 -73 -217 -101 -371 -58 -321 -71 -514
-48 -730 6 -63 17 -171 23 -240 13 -151 51 -363 79 -445 12 -33 41 -135 66
-227 55 -211 103 -337 191 -508 86 -168 108 -246 134 -480 42 -389 98 -602
281 -1080 43 -112 171 -353 231 -433 33 -45 84 -118 112 -162 29 -44 93 -138
144 -209 50 -70 91 -137 91 -148 0 -11 13 -38 29 -61 16 -23 52 -81 80 -130
29 -48 78 -115 109 -150 32 -34 69 -80 83 -102 64 -99 275 -268 378 -303 45
-16 114 -15 154 1 43 19 103 87 112 128 10 46 59 142 107 209 75 107 221 278
262 307 17 13 54 47 81 76 49 53 51 53 155 76 250 54 489 149 670 266 41 27
111 69 155 93 44 24 107 64 140 89 33 24 96 67 140 95 116 73 393 288 443 342
37 40 43 52 40 83 -2 25 -11 42 -29 55 -34 25 -59 15 -140 -58 -35 -31 -118
-93 -184 -137 -66 -44 -147 -103 -180 -132 -33 -28 -98 -75 -143 -104 -46 -28
-103 -66 -125 -85 -78 -63 -291 -199 -372 -237 -44 -20 -120 -49 -170 -64 -49
-15 -121 -38 -158 -51 -84 -29 -112 -31 -102 -6 4 9 12 56 18 105 10 75 9 89
-4 102 -14 14 -25 11 -104 -25 -70 -32 -102 -55 -150 -103 -33 -34 -85 -75
-115 -91 -30 -16 -75 -40 -99 -53 -58 -30 -134 -31 -202 -2 -82 36 -177 172
-215 307 -24 86 -13 153 42 257 24 46 44 94 44 107 0 52 -42 61 -129 28 -46
-18 -68 -20 -160 -15 -58 3 -111 3 -116 -2 -17 -13 -41 -56 -49 -87 -8 -32 28
-111 70 -157 21 -22 24 -34 24 -105 0 -69 -5 -87 -33 -144 -29 -60 -36 -67
-81 -83 -28 -10 -78 -21 -111 -24 -110 -10 -173 40 -277 217 -33 58 -98 168
-143 245 -45 77 -102 172 -126 210 -50 77 -165 337 -229 515 -80 225 -117 415
-145 745 -13 149 -22 208 -35 230 -10 17 -23 48 -30 70 -6 22 -31 85 -55 140
-122 282 -285 722 -285 772 0 13 -11 72 -24 131 -53 229 -65 655 -27 917 61
411 122 604 292 920 68 126 65 120 143 240 241 366 549 672 911 905 95 61 360
201 435 229 419 156 646 201 1020 201 416 0 748 -75 1126 -255 254 -120 489
-290 715 -515 294 -294 526 -653 669 -1040 15 -41 50 -134 78 -206 80 -209 99
-393 63 -599 l-17 -100 -30 34 c-112 131 -190 181 -285 181 -230 0 -465 -218
-516 -479 -15 -74 -15 -87 -2 -110 10 -17 24 -27 45 -29 43 -4 69 29 83 108
17 101 28 133 69 196 71 109 160 173 270 194 122 23 216 -28 276 -147 15 -29
33 -53 40 -53 21 0 33 -50 47 -195 12 -138 1 -324 -23 -383 -6 -15 -12 -87
-13 -162 -1 -143 -33 -377 -62 -460 -42 -121 -106 -233 -164 -291 l-60 -60
-52 7 c-29 3 -67 10 -85 16 -18 5 -44 7 -57 4 -18 -5 -28 0 -45 24 -42 59
-110 44 -110 -25 0 -74 77 -143 180 -161 42 -7 52 -9 64 -13 5 -1 -41 -118
-61 -156 -10 -19 -34 -117 -70 -290 -9 -44 -18 -115 -20 -157 -4 -67 -2 -79
16 -97 12 -12 32 -21 45 -21 41 0 56 25 56 90 0 32 4 70 10 85 5 14 14 56 20
93 17 108 50 233 74 287 13 28 31 71 41 97 10 26 24 53 31 59 8 6 14 19 14 29
0 9 26 38 59 64 70 57 104 103 163 221 68 136 85 195 112 375 23 156 24 187
22 550 -2 301 0 394 11 428 12 40 44 253 57 387 8 78 -26 335 -59 450 -37 125
-144 391 -215 530 -195 380 -394 647 -675 906 -101 92 -335 271 -400 305 -11
6 -38 22 -61 36 -66 42 -271 142 -374 183 -322 127 -604 183 -950 190 -102 2
-194 2 -205 0z"/>
<path d="M12857 6089 c-11 -6 -17 -20 -15 -37 1 -18 -20 -60 -63 -127 l-64
-100 -8 -820 c-5 -451 -10 -821 -12 -823 -1 -1 -17 -7 -35 -12 l-32 -9 4 872
3 872 -25 3 c-17 2 -72 -26 -173 -86 l-148 -89 -5 -459 c-2 -253 -6 -626 -8
-830 -4 -403 -4 -399 -63 -458 -62 -63 -178 -89 -198 -44 -6 13 -23 27 -39 33
-25 8 -31 6 -52 -18 -23 -27 -31 -68 -18 -102 22 -58 208 -82 291 -38 23 13
70 47 105 77 107 91 267 174 418 218 l45 13 6 300 c3 165 7 369 8 453 l1 152
27 0 c46 0 111 39 144 86 43 63 90 167 96 214 3 22 10 43 14 46 13 7 11 42 -2
49 -6 4 -71 6 -145 6 l-135 -2 2 116 c2 113 3 116 23 110 12 -4 44 -13 71 -21
139 -41 312 51 381 199 49 108 30 161 -44 119 -83 -46 -176 -20 -263 76 -62
68 -69 73 -92 61z m169 -211 c29 -13 70 -22 101 -22 29 -1 53 -5 53 -10 0 -5
-16 -28 -35 -52 -73 -89 -199 -119 -306 -73 -43 19 -49 25 -49 51 0 19 20 63
51 114 l50 84 43 -35 c23 -19 65 -45 92 -57z m-459 -585 c-4 -285 -7 -663 -7
-839 l0 -322 -32 -13 c-18 -7 -70 -35 -116 -61 -46 -26 -85 -48 -87 -48 -2 0
3 16 11 35 11 28 14 120 15 517 1 266 5 629 8 807 l6 324 95 58 c52 32 99 58
104 58 6 1 7 -206 3 -516z m409 40 c-13 -55 -77 -175 -107 -204 -20 -18 -42
-29 -60 -29 l-29 0 0 124 0 125 38 4 c20 2 66 4 101 5 l63 2 -6 -27z"/>
<path d="M12035 6038 c-22 -11 -59 -37 -82 -58 -23 -20 -60 -42 -82 -50 -23
-7 -45 -18 -50 -24 -15 -20 -18 -66 -6 -83 11 -15 18 -15 52 -5 62 18 88 15
176 -24 58 -26 101 -38 147 -41 l65 -5 98 72 c75 56 97 78 97 96 0 30 -38 41
-79 24 -31 -13 -21 -18 -185 97 -40 28 -99 29 -151 1z m172 -105 c46 -31 83
-60 83 -64 0 -13 -67 -49 -91 -49 -13 1 -42 8 -64 17 -22 8 -68 25 -103 38
l-62 22 42 35 c52 42 78 57 98 58 8 0 52 -26 97 -57z"/>
<path d="M8268 6009 c-27 -15 -38 -75 -38 -210 0 -180 -32 -327 -100 -461 -42
-80 -51 -107 -48 -141 2 -34 9 -45 37 -64 38 -26 87 -30 116 -9 41 28 129 48
246 56 91 6 125 13 140 26 31 28 33 52 6 92 -113 171 -172 321 -208 532 -11
70 -40 143 -66 172 -18 20 -58 23 -85 7z"/>
<path d="M3441 5849 c-70 -14 -121 -44 -199 -120 -53 -52 -72 -77 -70 -92 3
-21 8 -22 74 -19 60 3 82 -1 150 -28 167 -67 240 -52 371 75 l85 83 -18 31
c-20 33 -39 38 -88 20 -27 -10 -46 -6 -139 25 -59 20 -111 36 -115 35 -4 -1
-27 -5 -51 -10z m157 -99 c46 -16 92 -30 104 -30 19 0 17 -4 -14 -34 -41 -39
-97 -66 -139 -66 -23 0 -210 63 -228 77 -9 7 24 34 72 58 66 32 105 32 205 -5z"/>
<path d="M4997 5833 c-62 -33 -372 -235 -377 -246 -3 -7 -2 -358 1 -782 4
-423 6 -772 3 -774 -2 -2 -22 8 -44 24 l-39 27 -3 767 -3 766 -22 60 c-13 32
-39 75 -58 95 -19 20 -35 41 -35 47 0 7 -9 15 -20 18 -15 5 -58 -22 -178 -109
-86 -64 -160 -116 -164 -116 -5 0 -8 31 -8 68 0 90 -27 116 -74 74 -12 -10
-122 -83 -246 -162 -124 -78 -233 -150 -242 -158 -25 -21 -22 -35 15 -73 l32
-34 5 -615 c6 -712 12 -665 -92 -749 -75 -61 -171 -111 -212 -111 -17 0 -42
-7 -54 -16 -19 -13 -22 -24 -20 -57 2 -34 9 -45 37 -64 71 -48 166 -29 444 92
22 9 57 15 80 13 41 -3 42 -4 47 -43 4 -30 12 -43 32 -55 26 -14 34 -13 127
19 129 43 195 81 226 131 14 22 27 40 30 40 2 0 14 -22 26 -50 35 -81 130
-149 154 -110 3 5 64 46 136 90 72 45 147 96 166 115 l35 34 -3 755 -4 756 22
15 c17 12 27 13 43 5 20 -11 20 -19 20 -755 l0 -744 41 -95 c43 -100 95 -162
128 -153 37 9 340 202 351 222 17 31 4 65 -24 65 -12 0 -26 -4 -31 -9 -6 -5
-20 -5 -32 0 l-23 8 0 754 c0 826 1 807 -61 935 -20 41 -42 70 -62 83 -36 22
-33 22 -70 2z m95 -170 l23 -58 3 -781 2 -782 27 -26 c14 -14 24 -28 22 -30
-35 -29 -213 -127 -226 -124 -11 2 -32 32 -53 73 l-35 70 -5 760 c-5 829 -2
789 -63 819 l-28 13 133 86 133 86 22 -24 c11 -13 32 -50 45 -82z m-673 42
c17 -27 34 -72 40 -109 7 -42 11 -313 11 -809 l0 -746 34 -16 c19 -9 41 -24
50 -34 20 -22 25 -17 -118 -105 -105 -65 -109 -67 -128 -49 -11 10 -28 34 -38
53 -16 32 -18 105 -29 829 -6 437 -14 798 -17 803 -3 5 -24 16 -45 25 -22 8
-39 19 -37 24 4 10 230 178 241 179 4 0 20 -20 36 -45z m-425 -885 c3 -250 9
-508 12 -572 l6 -118 -39 0 c-57 0 -140 -25 -215 -64 -38 -20 -68 -33 -68 -31
0 12 109 73 157 89 28 9 54 24 57 32 3 9 6 342 6 740 l0 724 33 20 32 20 6
-193 c4 -105 10 -397 13 -647z m-154 66 c-1 -517 -4 -687 -13 -694 -7 -6 -25
-14 -40 -17 -16 -4 -62 -29 -102 -56 l-74 -48 7 32 c3 18 6 43 6 57 0 14 -3
286 -8 604 -7 556 -8 580 -27 604 -16 21 -17 28 -7 38 13 13 248 164 255 164
2 0 3 -308 3 -684z m294 602 l25 -23 6 -580 c3 -319 8 -645 11 -724 l5 -143
-38 39 c-21 22 -43 42 -50 44 -9 3 -14 139 -22 524 -9 419 -14 832 -11 878 0
16 50 6 74 -15z m-75 -1456 c21 -10 39 -28 48 -50 13 -32 13 -36 -12 -68 -15
-19 -38 -42 -52 -51 -36 -24 -185 -83 -195 -77 -4 3 -8 14 -8 25 0 32 -29 67
-66 79 -37 13 -126 -1 -176 -26 -16 -8 -28 -13 -28 -10 0 12 135 103 205 139
134 67 202 77 284 39z"/>
<path d="M6515 5758 c-18 -17 -28 -39 -36 -83 -5 -33 -25 -114 -43 -180 -19
-66 -41 -154 -50 -196 -10 -42 -31 -104 -47 -138 -25 -50 -29 -72 -27 -118 2
-46 7 -59 28 -75 25 -18 26 -18 95 8 55 20 87 25 148 25 147 -2 171 37 119
187 -17 48 -34 112 -37 142 -4 30 -13 89 -20 130 -8 41 -17 120 -21 174 -5 86
-9 102 -30 123 -29 29 -46 29 -79 1z"/>
<path d="M10796 5314 c-66 -21 -143 -99 -191 -195 -21 -41 -48 -86 -60 -101
-76 -90 -53 -240 58 -382 55 -70 62 -99 53 -219 l-7 -90 40 -41 c22 -22 54
-56 71 -75 30 -33 33 -34 94 -29 77 7 105 24 140 88 47 86 35 160 -24 160 -34
0 -45 -13 -59 -66 -14 -51 -38 -76 -47 -48 -3 11 -12 35 -20 54 -13 31 -13 40
1 72 28 70 13 144 -51 238 -15 21 -24 49 -24 72 0 36 3 39 58 67 68 34 95 61
95 96 0 63 -48 71 -123 20 -29 -19 -56 -35 -60 -35 -27 0 -35 91 -13 134 46
89 86 116 175 116 58 0 104 -18 137 -54 14 -14 28 -26 32 -26 4 0 -1 32 -12
71 -18 66 -58 139 -91 167 -24 20 -118 23 -172 6z"/>
<path d="M8352 4849 c-112 -13 -252 -49 -273 -70 -21 -21 -25 -60 -9 -90 13
-23 58 -25 98 -5 15 7 41 17 58 20 29 7 32 5 38 -24 3 -17 19 -44 34 -60 54
-54 201 -51 298 5 23 14 44 31 48 40 7 18 31 19 90 3 38 -10 48 -9 70 5 31 21
35 66 8 90 -10 9 -47 23 -83 31 -35 8 -116 26 -179 40 -63 15 -117 26 -120 25
-3 -1 -38 -5 -78 -10z"/>
<path d="M6538 4662 c-37 -10 -78 -28 -91 -40 -13 -12 -27 -22 -31 -22 -4 0
-27 -14 -52 -30 -37 -26 -44 -36 -44 -63 0 -18 5 -38 12 -45 18 -18 67 -14
105 9 l33 21 40 -35 c59 -54 97 -70 165 -71 66 0 89 10 152 60 23 19 50 34 60
34 47 0 80 58 55 96 -11 18 -91 55 -160 75 -100 28 -167 31 -244 11z"/>
<path d="M8510 4497 c-26 -16 -55 -23 -119 -27 -77 -5 -86 -7 -104 -32 l-20
-27 22 -78 c24 -87 61 -272 61 -306 0 -85 51 -140 125 -135 51 4 65 29 65 124
0 47 9 100 25 155 73 243 79 292 42 327 -29 28 -53 27 -97 -1z"/>
<path d="M6452 4334 c-61 -41 -65 -62 -28 -127 15 -26 34 -93 51 -177 15 -74
33 -150 41 -168 23 -55 100 -66 122 -17 6 13 16 61 22 107 16 121 40 238 57
278 18 44 9 96 -20 114 -12 7 -60 16 -107 19 -85 6 -86 5 -138 -29z"/>
<path d="M7600 3401 c-90 -37 -104 -45 -193 -119 -43 -35 -90 -67 -105 -71
-55 -16 -215 26 -276 73 -81 61 -122 66 -153 20 -20 -31 -7 -65 34 -90 15 -10
37 -26 48 -36 32 -27 203 -87 270 -94 100 -10 161 16 285 122 51 44 82 62 138
79 21 6 21 5 11 -19 -10 -20 -9 -30 5 -51 20 -31 67 -34 113 -5 50 30 66 63
60 117 -11 102 -102 130 -237 74z"/>
<path d="M7550 2873 c-14 -3 -54 -18 -90 -35 -58 -27 -72 -29 -127 -24 -33 4
-75 11 -93 18 -40 13 -220 5 -270 -13 -19 -7 -60 -28 -90 -48 -30 -20 -72 -45
-93 -55 -37 -19 -67 -59 -67 -89 0 -8 8 -25 18 -37 25 -31 67 -29 102 5 19 18
33 24 42 19 7 -5 90 -10 183 -11 94 -1 213 -5 265 -10 80 -8 107 -6 170 10 41
11 109 23 150 27 41 4 93 15 114 24 22 9 47 14 55 11 9 -4 51 -10 93 -15 43
-5 99 -17 126 -26 62 -22 98 -14 118 29 32 67 -22 129 -163 186 -63 26 -81 29
-243 34 -96 3 -186 3 -200 0z"/>
<path d="M7720 2334 c-62 -56 -140 -74 -277 -65 -59 5 -120 14 -135 21 -23 11
-31 10 -53 -4 -33 -22 -40 -41 -26 -72 20 -46 80 -62 236 -66 125 -3 148 -1
211 20 90 30 153 82 160 133 12 74 -51 91 -116 33z"/>
</g>
</svg>
